# xmcd
#
# Track frame offsets: 
#        150
#        21600
#        44733
#        72209
#        92036
#        120684
#        124366
#        138534
#        154293
#        169769
#        198692
#
# Disc length: 2842 seconds
#
# Revision: 0
# Processed by: cddbd v1.5.2PL0 Copyright (c) Steve Scherf et al.
# Submitted via: ExactAudioCopy v0.95a4
#
DISCID=ad0b180b
DTITLE=Black Market III - Dashboard Jesus
DYEAR=2018
DGENRE=Blues
TTITLE0=Daddy Rollin' Stone
TTITLE1=I Wouldn't Treat A Dog
TTITLE2=Your Love So Cruel
TTITLE3=When The Sun Goes Down
TTITLE4=House Of The Rising Son
TTITLE5=Prelude
TTITLE6=Black Roses
TTITLE7=Regresare
TTITLE8=Live and Let Live
TTITLE9=O'Mary Don't You Weep
TTITLE10=Gallow's Pole
EXTD=
EXTT0=
EXTT1=
EXTT2=
EXTT3=
EXTT4=
EXTT5=
EXTT6=
EXTT7=
EXTT8=
EXTT9=
EXTT10=
PLAYORDER=
